<svg width="24" height="24" viewBox="0 0 24 24" fill="none" xmlns="http://www.w3.org/2000/svg">
<path d="M18.75 16.5V5.99999C18.7512 5.70417 18.6939 5.41103 18.5813 5.13749C18.4686 4.86394 18.3029 4.61541 18.0938 4.40623C17.8846 4.19705 17.636 4.03137 17.3625 3.91873C17.089 3.8061 16.7958 3.74875 16.5 3.74999H3.75" stroke="#E54594" stroke-linecap="round" stroke-linejoin="round"/>
<path d="M9.75 9.75H15.75" stroke="#E54594" stroke-linecap="round" stroke-linejoin="round"/>
<path d="M9.75 12.75H15.75" stroke="#E54594" stroke-linecap="round" stroke-linejoin="round"/>
<path d="M2.07187 7.49999C1.829 7.22806 1.65585 6.90118 1.56733 6.54749C1.4788 6.19381 1.47756 5.8239 1.56369 5.46962C1.64983 5.11535 1.82077 4.78731 2.0618 4.51375C2.30283 4.24019 2.60673 4.0293 2.94734 3.89923C3.28795 3.76916 3.65507 3.72382 4.01709 3.7671C4.37911 3.81038 4.72519 3.94099 5.02554 4.14768C5.32589 4.35437 5.57151 4.63096 5.74126 4.95363C5.91101 5.2763 5.9998 5.63539 6 5.99999V18C6.00019 18.3646 6.08899 18.7237 6.25874 19.0463C6.42849 19.369 6.67411 19.6456 6.97446 19.8523C7.27481 20.059 7.62089 20.1896 7.98291 20.2329C8.34493 20.2762 8.71205 20.2308 9.05266 20.1007C9.39327 19.9707 9.69717 19.7598 9.9382 19.4862C10.1792 19.2127 10.3502 18.8846 10.4363 18.5304C10.5224 18.1761 10.5212 17.8062 10.4327 17.4525C10.3441 17.0988 10.171 16.7719 9.92813 16.5H20.4281C20.7177 16.8238 20.9074 17.2245 20.9743 17.6538C21.0411 18.0831 20.9823 18.5225 20.8048 18.919C20.6274 19.3156 20.3389 19.6523 19.9743 19.8884C19.6096 20.1246 19.1844 20.2502 18.75 20.25H8.25" stroke="#E54594" stroke-linecap="round" stroke-linejoin="round"/>
</svg>
